<svg viewBox="0 0 18 18" fill="none" xmlns="http://www.w3.org/2000/svg">
    <path d="M16.4368 8.99999C16.4368 4.92581 13.1344 1.62393 9.06076 1.62393C4.98713 1.62393 1.68469 4.92581 1.68469 8.99999C1.68469 13.0736 4.98713 16.3761 9.06076 16.3761C13.1344 16.3761 16.4368 13.0736 16.4368 8.99999ZM2.27532 8.99999C2.27532 5.25824 5.31957 2.21399 9.06132 2.21399C12.8031 2.21399 15.8473 5.25824 15.8473 8.99999C15.8473 12.7417 12.8036 15.786 9.06132 15.786C5.31957 15.786 2.27532 12.7417 2.27532 8.99999Z" fill="black"/>
    <path d="M12.2321 8.55225L12.6495 8.13488L9.06132 4.54669L5.47369 8.13488L5.89107 8.55225L8.76657 5.67675V12.8357H9.35663V5.67675L12.2321 8.55225Z" fill="black"/>
</svg>
