<svg width="24" height="24" viewBox="0 0 24 24" fill="none" xmlns="http://www.w3.org/2000/svg">
    <path d="M12 2.08425C6.56772 2.08425 2.16522 6.4875 2.16522 11.919C2.16522 17.3505 6.56772 21.7538 12 21.7538C17.4315 21.7538 21.8347 17.3505 21.8347 11.919C21.8347 6.4875 17.4315 2.08425 12 2.08425ZM12 20.9663C7.01097 20.9663 2.95197 16.9073 2.95197 11.9183C2.95197 6.92925 7.01097 2.87025 12 2.87025C16.989 2.87025 21.048 6.9285 21.048 11.9183C21.048 16.9073 16.989 20.9663 12 20.9663Z" fill="white"/>
    <path d="M11.403 7.6905L10.8465 7.134L6.06226 11.9183L10.8465 16.7018L11.403 16.1453L7.56901 12.3113H17.1143V11.5245H7.56901L11.403 7.6905Z" fill="white"/>
</svg>
