<svg width="27" height="27" viewBox="0 0 24 24" fill="none"
     xmlns="http://www.w3.org/2000/svg">
    <path
            d="M10.125 11.868C12.735 11.868 14.8515 9.7515 14.8515 7.1415C14.8515 4.5315 12.735 2.415 10.125 2.415C7.51498 2.415 5.39848 4.5315 5.39848 7.1415C5.40148 9.75075 7.51648 11.865 10.125 11.868ZM10.125 3.54C12.114 3.54 13.7265 5.1525 13.7265 7.1415C13.7265 9.1305 12.114 10.743 10.125 10.743C8.13598 10.743 6.52348 9.1305 6.52348 7.1415C6.52573 5.15325 8.13673 3.54225 10.125 3.54ZM10.125 13.5248C5.65798 13.5435 1.92373 16.662 0.962982 20.8395L0.950982 20.9032C0.942732 20.9393 0.938232 20.9805 0.938232 21.0233C0.938232 21.3337 1.19023 21.5858 1.50073 21.5858C1.76848 21.5858 1.99273 21.3982 2.04898 21.147L2.04973 21.1432C2.89273 17.4023 6.18748 14.6498 10.1257 14.6498C14.064 14.6498 17.358 17.4023 18.1912 21.0877L18.2017 21.1432C18.2557 21.3983 18.4792 21.5865 18.7462 21.5865C18.7905 21.5865 18.834 21.5812 18.8752 21.5715L18.8715 21.5723C19.1265 21.5153 19.314 21.291 19.314 21.0225C19.314 20.9797 19.3095 20.9385 19.3005 20.8988L19.3012 20.9025C18.327 16.662 14.5942 13.5435 10.1287 13.524H10.1265L10.125 13.5248ZM22.5 10.3148H20.436V8.25C20.436 7.9395 20.184 7.6875 19.8735 7.6875C19.563 7.6875 19.311 7.9395 19.311 8.25V10.3148H17.2455C16.935 10.3148 16.683 10.5668 16.683 10.8773C16.683 11.1877 16.935 11.4397 17.2455 11.4397H19.311V13.5045C19.311 13.815 19.563 14.067 19.8735 14.067C20.184 14.067 20.436 13.815 20.436 13.5045V11.4397H22.5C22.8105 11.4397 23.0625 11.1877 23.0625 10.8773C23.0625 10.5668 22.8105 10.3148 22.5 10.3148Z"
            fill="white"/>
</svg>